<?xml version="1.0" encoding="UTF-8"?>
<svg id="LUpper" xmlns="http://www.w3.org/2000/svg" viewBox="0 0 1913 232.9">
  <defs>
    <style>
      .cls-1 {
        opacity: .95;
      }
    </style>
  </defs>
  <g>
    <polygon class="cls-1" points="1524.35 172.78 1605.85 172.78 1605.85 148.33 1555.19 148.33 1555.19 100.5 1524.35 100.5 1524.35 172.78"/>
    <path class="cls-1" d="M1870.15,111.33c0,7.49-1.51,13.95-4.52,19.38-3.01,5.43-6.98,9.62-11.89,12.55-4.92,2.94-10.24,4.4-15.97,4.4s-10.83-1.43-15.75-4.29c-4.92-2.86-8.89-7.01-11.89-12.45-3.01-5.43-4.52-11.82-4.52-19.16,0-4.06.52-7.79,1.45-11.27h-32.29v72.28h30.84v-17.4c4.11,5.73,9.58,10.39,16.41,13.99,6.83,3.6,14.79,5.4,23.9,5.4,10.42,0,19.86-2.64,28.3-7.93,8.44-5.29,15.12-12.74,20.04-22.36,4.92-9.61,7.38-20.67,7.38-33.15,0-3.75-.25-7.35-.7-10.83h-32.16c.86,3.34,1.37,6.92,1.37,10.83Z"/>
    <path class="cls-1" d="M90.08,133.35c-8.81,8.81-21.29,13.22-37.44,13.22h-21.8v-46.07H0v72.28h53.74c16.15,0,30.36-3.16,42.62-9.47,12.26-6.31,21.73-15.23,28.41-26.76,6.04-10.42,9.3-22.45,9.88-36.04h-31.54c-.75,13.89-5.06,24.87-13.04,32.85Z"/>
    <rect class="cls-1" x="157.92" y="100.5" width="30.84" height="72.28"/>
    <path class="cls-1" d="M307.25,111.77c0,7.49-1.47,13.91-4.41,19.27-2.94,5.36-6.9,9.47-11.89,12.33-4.99,2.86-10.35,4.29-16.08,4.29s-10.83-1.47-15.75-4.4c-4.92-2.94-8.89-7.16-11.89-12.66-3.01-5.51-4.51-11.93-4.51-19.27,0-3.91.5-7.49,1.36-10.83h-32.15c-.46,3.48-.71,7.08-.71,10.83,0,12.48,2.46,23.53,7.38,33.15,4.92,9.62,11.63,17.07,20.15,22.36,8.51,5.29,17.91,7.93,28.19,7.93,8.95,0,16.92-1.91,23.9-5.73,6.97-3.82,12.44-8.59,16.41-14.32v18.94c0,10.87-2.79,18.98-8.37,24.34-5.58,5.36-12.85,8.04-21.8,8.04-7.64,0-14.13-1.65-19.49-4.96-5.36-3.3-8.85-7.75-10.46-13.33h-30.62c1.47,13.95,7.74,24.96,18.83,33.04,11.08,8.07,25.29,12.11,42.62,12.11,12.92,0,23.93-2.61,33.04-7.82,9.1-5.21,15.93-12.26,20.48-21.14,4.55-8.89,6.83-18.98,6.83-30.28v-73.16h-32.44c.89,3.45,1.38,7.18,1.38,11.27Z"/>
    <rect class="cls-1" x="368.48" y="100.5" width="30.84" height="72.28"/>
    <path class="cls-1" d="M434.56,134.89c0,25.26,13,37.88,38.98,37.88h19.38v-25.99h-14.32c-4.7,0-8.04-.92-10.02-2.75-1.98-1.83-2.97-4.81-2.97-8.92v-34.61h-31.06v34.39Z"/>
    <path class="cls-1" d="M603.27,111.77c0,7.49-1.47,13.91-4.41,19.27-2.94,5.36-6.9,9.47-11.89,12.33-4.99,2.86-10.35,4.29-16.08,4.29s-10.83-1.47-15.75-4.4c-4.92-2.94-8.88-7.16-11.89-12.66-3.01-5.51-4.51-11.93-4.51-19.27,0-3.91.5-7.49,1.36-10.83h-32.15c-.46,3.48-.71,7.08-.71,10.83,0,12.48,2.46,23.53,7.38,33.15,4.92,9.62,11.6,17.07,20.04,22.36,8.44,5.29,17.8,7.93,28.08,7.93,9.1,0,17.14-1.87,24.12-5.62,6.97-3.74,12.45-8.48,16.41-14.21v17.84h31.06v-72.28h-32.44c.89,3.45,1.38,7.18,1.38,11.27Z"/>
    <rect class="cls-1" x="664.5" y="100.5" width="30.84" height="72.28"/>
    <rect class="cls-1" x="778.15" y="100.5" width="30.84" height="72.28"/>
    <polygon class="cls-1" points="862.06 133.35 848.01 100.5 820.46 100.5 850.39 172.78 873.74 172.78 903.51 100.5 876.11 100.5 862.06 133.35"/>
    <rect class="cls-1" x="914.92" y="100.5" width="30.84" height="72.28"/>
    <path class="cls-1" d="M968.22,111.77c0,12.48,2.6,23.49,7.82,33.04,5.21,9.55,12.48,16.92,21.8,22.13,9.32,5.21,19.86,7.82,31.61,7.82,14.54,0,26.8-3.78,36.78-11.34,9.98-7.56,16.74-17.21,20.26-28.96h-33.26c-4.85,9.84-13,14.76-24.45,14.76-7.93,0-14.61-2.49-20.04-7.49-5.43-4.99-8.52-11.89-9.25-20.7h89.2c.59-3.52.88-7.49.88-11.89,0-2.96-.18-5.83-.5-8.62h-120.08c-.5,3.61-.77,7.36-.77,11.27Z"/>
    <path class="cls-1" d="M1200.15,111.77c0,7.49-1.47,13.91-4.41,19.27-2.94,5.36-6.9,9.47-11.89,12.33-4.99,2.86-10.35,4.29-16.08,4.29s-10.83-1.47-15.75-4.4c-4.92-2.94-8.89-7.16-11.89-12.66-3.01-5.51-4.52-11.93-4.52-19.27,0-3.91.5-7.49,1.36-10.83h-32.15c-.46,3.48-.71,7.08-.71,10.83,0,12.48,2.46,23.53,7.38,33.15,4.92,9.62,11.64,17.07,20.15,22.36,8.51,5.29,17.91,7.93,28.19,7.93,9.1,0,17.1-1.84,24.01-5.51,6.9-3.67,12.26-8.51,16.08-14.54v18.06h31.28v-72.28h-32.44c.89,3.45,1.38,7.18,1.38,11.27Z"/>
    <rect class="cls-1" x="1261.37" y="100.5" width="30.84" height="72.28"/>
    <path class="cls-1" d="M1410.71,111.77c0,7.49-1.47,13.91-4.4,19.27-2.94,5.36-6.9,9.47-11.89,12.33-4.99,2.86-10.35,4.29-16.08,4.29s-10.83-1.47-15.75-4.4c-4.92-2.94-8.89-7.16-11.89-12.66-3.01-5.51-4.52-11.93-4.52-19.27,0-3.91.5-7.49,1.36-10.83h-32.15c-.46,3.48-.71,7.08-.71,10.83,0,12.48,2.46,23.53,7.38,33.15,4.92,9.62,11.6,17.07,20.04,22.36,8.44,5.29,17.8,7.93,28.08,7.93,9.1,0,17.14-1.87,24.12-5.62,6.97-3.74,12.45-8.48,16.41-14.21v17.84h31.06v-72.28h-32.44c.89,3.45,1.38,7.18,1.38,11.27Z"/>
    <path class="cls-1" d="M1713.55,111.77c0,7.49-1.47,13.91-4.4,19.27-2.94,5.36-6.9,9.47-11.89,12.33-4.99,2.86-10.35,4.29-16.08,4.29s-10.83-1.47-15.75-4.4c-4.92-2.94-8.89-7.16-11.89-12.66-3.01-5.51-4.52-11.93-4.52-19.27,0-3.91.5-7.49,1.36-10.83h-32.15c-.46,3.48-.71,7.08-.71,10.83,0,12.48,2.46,23.53,7.38,33.15,4.92,9.62,11.6,17.07,20.04,22.36,8.44,5.29,17.8,7.93,28.08,7.93,9.1,0,17.14-1.87,24.12-5.62,6.97-3.74,12.45-8.48,16.41-14.21v17.84h31.06v-72.28h-32.44c.89,3.45,1.38,7.18,1.38,11.27Z"/>
  </g>
  <g>
    <polygon class="cls-1" points="1567.25 99.26 1567.25 18.94 1536.41 18.94 1536.41 99.26 1536.41 100.4 1567.25 100.4 1567.25 99.26"/>
    <path class="cls-1" d="M1819.45,99.26c.71-2.38,1.58-4.66,2.74-6.75,3.01-5.43,6.97-9.58,11.89-12.44,4.92-2.86,10.17-4.3,15.75-4.3s11.05,1.4,15.97,4.19c4.92,2.79,8.88,6.87,11.89,12.22,1.23,2.18,2.14,4.57,2.86,7.08.11.37.19.76.29,1.14h32.16c-.05-.38-.09-.77-.14-1.14-1.09-7.65-3.25-14.65-6.53-20.96-4.92-9.47-11.6-16.77-20.04-21.92-8.45-5.14-17.88-7.71-28.3-7.71-8.96,0-16.93,1.84-23.9,5.51-6.98,3.67-12.44,8.45-16.41,14.32V9.69h-30.84v90.71h32.29c.1-.38.21-.77.32-1.14Z"/>
    <path class="cls-1" d="M42.89,99.26v-54.33h21.8c16.15,0,28.63,4.51,37.44,13.54,8.81,9.03,13.21,21.55,13.21,37.55,0,1.11-.07,2.16-.11,3.23-.02.39-.04.76-.06,1.14h31.54c.02-.38.04-.76.05-1.14.03-1.07.09-2.14.09-3.23,0-15.42-3.34-28.96-10.02-40.64-6.68-11.67-16.15-20.67-28.41-26.98-12.26-6.31-26.47-9.47-42.62-9.47H12.06v81.46h30.84v-1.14Z"/>
    <polygon class="cls-1" points="200.81 99.26 200.81 50.66 169.98 50.66 169.98 99.26 169.98 100.4 200.81 100.4 200.81 99.26"/>
    <path class="cls-1" d="M185.62,36.12c5.43,0,9.95-1.72,13.55-5.18,3.6-3.45,5.4-7.74,5.4-12.88s-1.8-9.43-5.4-12.88c-3.6-3.45-8.12-5.18-13.55-5.18s-9.95,1.73-13.55,5.18c-3.6,3.45-5.4,7.75-5.4,12.88s1.8,9.44,5.4,12.88c3.6,3.45,8.11,5.18,13.55,5.18Z"/>
    <path class="cls-1" d="M256.43,99.26c.73-2.51,1.64-4.9,2.86-7.08,3.01-5.36,6.94-9.43,11.79-12.22,4.85-2.79,10.13-4.19,15.86-4.19s11.09,1.43,16.08,4.3c4.99,2.86,8.96,6.98,11.89,12.33,1.15,2.11,2.01,4.43,2.71,6.86.11.38.21.76.31,1.14h32.44v-49.75h-31.06v17.4c-3.96-5.73-9.4-10.39-16.3-13.99-6.9-3.6-14.9-5.4-24.01-5.4-10.43,0-19.86,2.57-28.3,7.71-8.45,5.14-15.12,12.48-20.04,22.03-3.27,6.33-5.42,13.29-6.52,20.85-.05.38-.1.76-.15,1.14h32.15c.1-.38.18-.77.29-1.14Z"/>
    <polygon class="cls-1" points="411.37 99.26 411.37 50.66 380.54 50.66 380.54 99.26 380.54 100.4 411.37 100.4 411.37 99.26"/>
    <path class="cls-1" d="M396.18,36.12c5.43,0,9.94-1.72,13.54-5.18,3.6-3.45,5.4-7.74,5.4-12.88s-1.8-9.43-5.4-12.88c-3.6-3.45-8.11-5.18-13.54-5.18s-9.95,1.73-13.54,5.18c-3.6,3.45-5.4,7.75-5.4,12.88s1.8,9.44,5.4,12.88c3.6,3.45,8.11,5.18,13.54,5.18Z"/>
    <polygon class="cls-1" points="477.67 99.26 477.67 75.99 504.98 75.99 504.98 50.66 477.67 50.66 477.67 20.48 446.61 20.48 446.61 50.66 432.08 50.66 432.08 75.99 446.61 75.99 446.61 99.26 446.61 100.4 477.67 100.4 477.67 99.26"/>
    <path class="cls-1" d="M552.44,99.26c.73-2.51,1.64-4.9,2.86-7.08,3.01-5.36,6.94-9.43,11.78-12.22,4.85-2.79,10.13-4.19,15.86-4.19s11.08,1.43,16.08,4.3c4.99,2.86,8.95,6.98,11.89,12.33,1.15,2.11,2.02,4.43,2.72,6.86.11.38.21.76.31,1.14h32.44v-49.75h-31.06v17.4c-4.11-5.58-9.58-10.2-16.41-13.87-6.83-3.67-14.79-5.51-23.9-5.51-10.43,0-19.86,2.57-28.3,7.71-8.45,5.14-15.13,12.48-20.04,22.03-3.27,6.33-5.42,13.29-6.52,20.85-.05.38-.1.76-.15,1.14h32.15c.1-.38.18-.77.29-1.14Z"/>
    <polygon class="cls-1" points="707.39 99.26 707.39 9.69 676.55 9.69 676.55 99.26 676.55 100.4 707.39 100.4 707.39 99.26"/>
    <polygon class="cls-1" points="821.04 99.26 821.04 72.68 832.04 99.26 832.52 100.4 860.07 100.4 859.58 99.26 825.22 18.94 790.2 18.94 790.2 99.26 790.2 100.4 821.04 100.4 821.04 99.26"/>
    <polygon class="cls-1" points="916.03 99.26 926.98 72.68 926.98 99.26 926.98 100.4 957.82 100.4 957.82 99.26 957.82 18.94 923.02 18.94 888.66 99.26 888.17 100.4 915.56 100.4 916.03 99.26"/>
    <path class="cls-1" d="M1101.01,99.26c-1.03-7.97-3.33-15.26-6.97-21.84-5.06-9.17-12.19-16.26-21.36-21.25-9.18-4.99-19.57-7.49-31.17-7.49s-22.69,2.57-31.94,7.71c-9.25,5.14-16.45,12.48-21.59,22.03-3.38,6.28-5.63,13.24-6.78,20.85-.06.38-.1.76-.15,1.14h120.08c-.04-.38-.08-.76-.13-1.14ZM1011.77,100.22c.05-.33.12-.63.17-.95,1.28-7.76,4.4-13.88,9.41-18.32,5.21-4.63,11.63-6.94,19.27-6.94,8.07,0,14.9,2.39,20.48,7.16,5.35,4.58,8.17,10.62,8.53,18.1.02.32.05.63.06.95h-57.93Z"/>
    <path class="cls-1" d="M1149.32,99.26c.73-2.51,1.64-4.9,2.86-7.08,3.01-5.36,6.94-9.43,11.78-12.22,4.85-2.79,10.13-4.19,15.86-4.19s11.08,1.43,16.08,4.3c4.99,2.86,8.95,6.98,11.89,12.33,1.15,2.11,2.01,4.43,2.71,6.86.11.38.21.76.31,1.14h32.44V9.69h-31.28v57.93c-4.26-5.73-9.99-10.31-17.18-13.77-7.2-3.45-14.76-5.18-22.69-5.18-10.43,0-19.9,2.57-28.41,7.71-8.52,5.14-15.24,12.48-20.15,22.03-3.27,6.33-5.42,13.29-6.52,20.85-.05.38-.1.76-.15,1.14h32.15c.1-.38.18-.77.29-1.14Z"/>
    <polygon class="cls-1" points="1304.27 99.26 1304.27 50.66 1273.43 50.66 1273.43 99.26 1273.43 100.4 1304.27 100.4 1304.27 99.26"/>
    <path class="cls-1" d="M1289.07,36.12c5.43,0,9.94-1.72,13.54-5.18,3.6-3.45,5.4-7.74,5.4-12.88s-1.8-9.43-5.4-12.88c-3.6-3.45-8.11-5.18-13.54-5.18s-9.95,1.73-13.55,5.18c-3.6,3.45-5.4,7.75-5.4,12.88s1.8,9.44,5.4,12.88c3.6,3.45,8.11,5.18,13.55,5.18Z"/>
    <path class="cls-1" d="M1359.88,99.26c.73-2.51,1.64-4.9,2.86-7.08,3.01-5.36,6.94-9.43,11.78-12.22,4.85-2.79,10.13-4.19,15.86-4.19s11.08,1.43,16.08,4.3c4.99,2.86,8.95,6.98,11.89,12.33,1.15,2.11,2.01,4.43,2.71,6.86.11.38.21.76.31,1.14h32.44v-49.75h-31.06v17.4c-4.11-5.58-9.58-10.2-16.41-13.87-6.83-3.67-14.79-5.51-23.9-5.51-10.43,0-19.86,2.57-28.3,7.71-8.45,5.14-15.13,12.48-20.04,22.03-3.26,6.33-5.42,13.29-6.52,20.85-.05.38-.1.76-.15,1.14h32.15c.1-.38.18-.77.29-1.14Z"/>
    <path class="cls-1" d="M1662.73,99.26c.73-2.51,1.64-4.9,2.86-7.08,3.01-5.36,6.94-9.43,11.78-12.22,4.85-2.79,10.13-4.19,15.86-4.19s11.08,1.43,16.08,4.3c4.99,2.86,8.95,6.98,11.89,12.33,1.15,2.11,2.01,4.43,2.71,6.86.11.38.21.76.31,1.14h32.44v-49.75h-31.06v17.4c-4.11-5.58-9.58-10.2-16.41-13.87-6.83-3.67-14.79-5.51-23.9-5.51-10.43,0-19.86,2.57-28.3,7.71-8.45,5.14-15.12,12.48-20.04,22.03-3.26,6.33-5.42,13.29-6.52,20.85-.05.38-.1.76-.15,1.14h32.15c.1-.38.18-.77.29-1.14Z"/>
  </g>
</svg>